<svg id="Capa_1" data-name="Capa 1" xmlns="http://www.w3.org/2000/svg" viewBox="0 0 153.19 88.13"><defs><style>.cls-1{fill:#82b8b0;}.cls-2{fill:#00384a;}</style></defs><rect class="cls-1" x="110.71" y="30.09" width="12.34" height="12.34" rx="3.02"/><rect class="cls-1" x="110.71" y="44.74" width="12.34" height="12.34" rx="3.02"/><rect class="cls-1" x="110.71" y="14.85" width="12.34" height="12.34" rx="3.02"/><rect class="cls-1" x="97.39" y="31.09" width="12.34" height="12.34" rx="3.02" transform="translate(64.97 139.82) rotate(-90)"/><rect class="cls-1" x="126.69" y="31.09" width="12.34" height="12.34" rx="3.02" transform="translate(94.28 169.13) rotate(-90)"/><rect class="cls-1" x="20.36" y="20.35" width="31.74" height="31.74" rx="5.05"/><path class="cls-2" d="M1.33,19.59V73.44H12.08V21.5a9.75,9.75,0,0,1,9.75-9.76H53.28A9.75,9.75,0,0,1,63,21.5V53a9.75,9.75,0,0,1-9.75,9.75H21.69V73.44H55.18a18.59,18.59,0,0,0,18.6-18.59V19.59A18.59,18.59,0,0,0,55.18,1H19.93A18.59,18.59,0,0,0,1.33,19.59Z" transform="translate(-1.33 -1)"/><path class="cls-2" d="M109.58,72.5h-8a19.2,19.2,0,0,1-19.2-19.2V20.5a19.2,19.2,0,0,1,19.2-19.2h8a2.59,2.59,0,0,1,2.59,2.59V8.38A2.59,2.59,0,0,1,109.58,11h-8A9.53,9.53,0,0,0,92,20.5V53.3a9.53,9.53,0,0,0,9.53,9.53h8a2.59,2.59,0,0,1,2.59,2.59v4.49A2.59,2.59,0,0,1,109.58,72.5Z" transform="translate(-1.33 -1)"/><path class="cls-2" d="M127.31,72.5h8a19.21,19.21,0,0,0,19.21-19.2V20.5A19.21,19.21,0,0,0,135.31,1.3h-8a2.59,2.59,0,0,0-2.59,2.59V8.38A2.59,2.59,0,0,0,127.31,11h8a9.53,9.53,0,0,1,9.53,9.53V53.3a9.53,9.53,0,0,1-9.53,9.53h-8a2.59,2.59,0,0,0-2.59,2.59v4.49A2.59,2.59,0,0,0,127.31,72.5Z" transform="translate(-1.33 -1)"/><path class="cls-2" d="M7.12,89H6V84h0L4.82,89H3.6L2.51,84h0v5H1.33V83H3.15l1.08,4.71h0L5.31,83H7.12Z" transform="translate(-1.33 -1)"/><path class="cls-2" d="M8.91,89H7.59l2.13-6h1.44l2.1,6H11.91l-.38-1.23H9.32Zm.74-2.26h1.53l-.74-2.36h0Z" transform="translate(-1.33 -1)"/><path class="cls-2" d="M15.71,89H14.46V84.05h-1.8V83h4.85v1h-1.8Z" transform="translate(-1.33 -1)"/><path class="cls-2" d="M22.38,84.05H19.21v1.26h2.91v1.06H19.21v1.54h3.31V89H18V83h4.39Z" transform="translate(-1.33 -1)"/><path class="cls-2" d="M23.26,83h3a2,2,0,0,1,1,.19,1.58,1.58,0,0,1,.57.46,1.55,1.55,0,0,1,.28.56,2.52,2.52,0,0,1,.07.48,1.64,1.64,0,0,1-.24.88,1.25,1.25,0,0,1-.69.54,2,2,0,0,1,.33.17.82.82,0,0,1,.24.25,1.38,1.38,0,0,1,.14.42,4,4,0,0,1,0,.67v.54c0,.15,0,.26,0,.35a.76.76,0,0,0,.08.2.29.29,0,0,0,.16.1V89H26.88a2.14,2.14,0,0,1-.1-.48,4.65,4.65,0,0,1,0-.73,4.1,4.1,0,0,0,0-.52.68.68,0,0,0-.11-.34.54.54,0,0,0-.3-.2,1.57,1.57,0,0,0-.54-.07H24.48V89H23.26Zm2.68,2.63a1.14,1.14,0,0,0,.73-.19.74.74,0,0,0,.24-.63,1.13,1.13,0,0,0,0-.25.91.91,0,0,0-.13-.26.93.93,0,0,0-.27-.19A1.08,1.08,0,0,0,26,84H24.48v1.6Z" transform="translate(-1.33 -1)"/><path class="cls-2" d="M30.2,89H29V83H30.2Z" transform="translate(-1.33 -1)"/><path class="cls-2" d="M32,89H30.65l2.13-6h1.44l2.11,6H35l-.38-1.23H32.38Zm.75-2.26h1.52l-.74-2.36h0Z" transform="translate(-1.33 -1)"/><path class="cls-2" d="M38.07,87.89h3V89H36.83V83h1.24Z" transform="translate(-1.33 -1)"/><path class="cls-2" d="M46,84.05H42.8v1.26h2.91v1.06H42.8v1.54h3.31V89H41.58V83H46Z" transform="translate(-1.33 -1)"/><path class="cls-2" d="M47.71,87.13a1.1,1.1,0,0,0,0,.29.79.79,0,0,0,.18.32,1.09,1.09,0,0,0,.38.25,1.75,1.75,0,0,0,.66.11,2.12,2.12,0,0,0,.44,0,1.56,1.56,0,0,0,.4-.11.76.76,0,0,0,.29-.24.61.61,0,0,0,.12-.39.55.55,0,0,0-.08-.29.62.62,0,0,0-.23-.19,1.34,1.34,0,0,0-.34-.14l-.43-.12-.65-.15c-.24-.05-.47-.11-.7-.18a2,2,0,0,1-.61-.29,1.35,1.35,0,0,1-.42-.49,1.63,1.63,0,0,1-.16-.79,1.73,1.73,0,0,1,0-.37,1.64,1.64,0,0,1,.12-.4,2,2,0,0,1,.26-.4,1.6,1.6,0,0,1,.42-.34,2.43,2.43,0,0,1,.61-.24,3.49,3.49,0,0,1,.84-.09A2.88,2.88,0,0,1,50,83a2.23,2.23,0,0,1,.71.49,1.64,1.64,0,0,1,.37.63,1.79,1.79,0,0,1,.11.61H50c0-.07,0-.15-.06-.25a.68.68,0,0,0-.16-.3,1.13,1.13,0,0,0-.36-.24,1.65,1.65,0,0,0-.65-.11,1.59,1.59,0,0,0-.36,0,1,1,0,0,0-.34.12.73.73,0,0,0-.24.22.53.53,0,0,0-.1.34.49.49,0,0,0,.07.28.45.45,0,0,0,.15.18.67.67,0,0,0,.21.1l.21.06,1.45.36a5.08,5.08,0,0,1,.59.18A1.64,1.64,0,0,1,51,86a1.48,1.48,0,0,1,.35.46,1.67,1.67,0,0,1,.12.67,2,2,0,0,1-.13.77,1.5,1.5,0,0,1-.36.54,1.8,1.8,0,0,1-.49.34,2.29,2.29,0,0,1-.53.2l-.48.09-.36,0a3.51,3.51,0,0,1-1.32-.21,2.3,2.3,0,0,1-.78-.51,1.56,1.56,0,0,1-.36-.65,2.58,2.58,0,0,1-.09-.63Z" transform="translate(-1.33 -1)"/><path class="cls-2" d="M57,89H55.72V86.72L53.66,83h1.47l1.24,2.59L57.55,83H59l-2,3.73Z" transform="translate(-1.33 -1)"/><path class="cls-2" d="M62.36,89H61.05l2.13-6h1.43l2.11,6H65.36L65,87.74h-2.2Zm.75-2.26h1.52l-.74-2.36h0Z" transform="translate(-1.33 -1)"/><path class="cls-2" d="M70.81,85l-.11-.31a1,1,0,0,0-.21-.34,1.28,1.28,0,0,0-.38-.27,1.58,1.58,0,0,0-.63-.11A1.45,1.45,0,0,0,69,84a1.19,1.19,0,0,0-.48.32,1.77,1.77,0,0,0-.37.64A3.05,3.05,0,0,0,68,86a3.25,3.25,0,0,0,.09.77,1.89,1.89,0,0,0,.26.65,1.32,1.32,0,0,0,.46.45,1.28,1.28,0,0,0,.67.17,1.32,1.32,0,0,0,.87-.29,1.44,1.44,0,0,0,.46-.84h1.24a3.18,3.18,0,0,1-.3.9,2.12,2.12,0,0,1-.53.69,2.24,2.24,0,0,1-.76.46,3.13,3.13,0,0,1-1,.16,3,3,0,0,1-1.1-.2,2.24,2.24,0,0,1-.86-.6,2.85,2.85,0,0,1-.57-1,4.28,4.28,0,0,1-.2-1.36,4.07,4.07,0,0,1,.21-1.37,2.86,2.86,0,0,1,.58-1,2.3,2.3,0,0,1,.88-.6,2.91,2.91,0,0,1,1.07-.2,2.81,2.81,0,0,1,1.15.21,2.52,2.52,0,0,1,.79.52,2,2,0,0,1,.46.68,2,2,0,0,1,.18.7Z" transform="translate(-1.33 -1)"/><path class="cls-2" d="M75.31,89H74.06V84.05h-1.8V83h4.85v1h-1.8Z" transform="translate(-1.33 -1)"/><path class="cls-2" d="M78.79,89H77.54V83h1.25Z" transform="translate(-1.33 -1)"/><path class="cls-2" d="M83.17,83h1.3l-2,6H81.25l-2-6h1.34l1.28,4.52h0Z" transform="translate(-1.33 -1)"/><path class="cls-2" d="M84.49,86a4.28,4.28,0,0,1,.15-1.2,3,3,0,0,1,.42-.86,2,2,0,0,1,.57-.56,3.18,3.18,0,0,1,.63-.33,2.47,2.47,0,0,1,.61-.15,3,3,0,0,1,1,0,2.47,2.47,0,0,1,.61.15,3.55,3.55,0,0,1,.64.33,2.13,2.13,0,0,1,.56.56,3,3,0,0,1,.42.86,4.92,4.92,0,0,1,0,2.41,3.13,3.13,0,0,1-.42.86,2.13,2.13,0,0,1-.56.56,3.55,3.55,0,0,1-.64.33,3,3,0,0,1-.61.15,3,3,0,0,1-1,0,3,3,0,0,1-.61-.15,3.18,3.18,0,0,1-.63-.33,2,2,0,0,1-.57-.56,3.13,3.13,0,0,1-.42-.86A4.3,4.3,0,0,1,84.49,86Zm1.24,0a3.07,3.07,0,0,0,.16,1,1.9,1.9,0,0,0,.4.64,1.4,1.4,0,0,0,.53.32,1.64,1.64,0,0,0,1.07,0,1.4,1.4,0,0,0,.53-.32,1.9,1.9,0,0,0,.4-.64A3.07,3.07,0,0,0,89,86a3,3,0,0,0-.16-1,1.9,1.9,0,0,0-.4-.64,1.4,1.4,0,0,0-.53-.32,1.64,1.64,0,0,0-1.07,0,1.4,1.4,0,0,0-.53.32,1.9,1.9,0,0,0-.4.64A3,3,0,0,0,85.73,86Z" transform="translate(-1.33 -1)"/><path class="cls-2" d="M91.82,87.13a1.1,1.1,0,0,0,.05.29.79.79,0,0,0,.18.32,1.09,1.09,0,0,0,.38.25,1.75,1.75,0,0,0,.66.11,2.12,2.12,0,0,0,.44,0,1.56,1.56,0,0,0,.4-.11.76.76,0,0,0,.29-.24.61.61,0,0,0,.12-.39.55.55,0,0,0-.08-.29.62.62,0,0,0-.23-.19,1.34,1.34,0,0,0-.34-.14l-.43-.12-.65-.15a7.15,7.15,0,0,1-.7-.18A2,2,0,0,1,91.3,86a1.35,1.35,0,0,1-.42-.49,1.63,1.63,0,0,1-.16-.79,1.73,1.73,0,0,1,0-.37,1.64,1.64,0,0,1,.12-.4,2,2,0,0,1,.26-.4,1.6,1.6,0,0,1,.42-.34,2.43,2.43,0,0,1,.61-.24,3.49,3.49,0,0,1,.84-.09,2.79,2.79,0,0,1,1.13.2,2.17,2.17,0,0,1,.72.49,1.64,1.64,0,0,1,.37.63,1.79,1.79,0,0,1,.11.61h-1.2a1.57,1.57,0,0,0,0-.25.68.68,0,0,0-.16-.3,1.13,1.13,0,0,0-.36-.24,1.65,1.65,0,0,0-.65-.11,1.59,1.59,0,0,0-.36,0,1,1,0,0,0-.34.12.73.73,0,0,0-.24.22.53.53,0,0,0-.1.34.49.49,0,0,0,.07.28.45.45,0,0,0,.15.18.67.67,0,0,0,.21.1l.2.06,1.46.36a5.08,5.08,0,0,1,.59.18,1.64,1.64,0,0,1,.5.29,1.32,1.32,0,0,1,.34.46,1.51,1.51,0,0,1,.13.67,2,2,0,0,1-.13.77,1.65,1.65,0,0,1-.36.54,1.8,1.8,0,0,1-.49.34A2.29,2.29,0,0,1,94,89l-.48.09-.36,0a3.51,3.51,0,0,1-1.32-.21,2.3,2.3,0,0,1-.78-.51,1.56,1.56,0,0,1-.36-.65,2.58,2.58,0,0,1-.09-.63Z" transform="translate(-1.33 -1)"/><path class="cls-2" d="M99.17,87.13a1.06,1.06,0,0,0,0,.29.79.79,0,0,0,.18.32,1.09,1.09,0,0,0,.38.25,1.75,1.75,0,0,0,.66.11,2.28,2.28,0,0,0,.45,0,1.68,1.68,0,0,0,.4-.11.85.85,0,0,0,.29-.24.67.67,0,0,0,.11-.39.55.55,0,0,0-.08-.29.59.59,0,0,0-.22-.19,1.6,1.6,0,0,0-.35-.14l-.43-.12-.64-.15c-.25-.05-.48-.11-.71-.18a1.86,1.86,0,0,1-.6-.29,1.29,1.29,0,0,1-.43-.49,1.76,1.76,0,0,1-.16-.79,1.73,1.73,0,0,1,0-.37,1.69,1.69,0,0,1,.13-.4,1.56,1.56,0,0,1,.25-.4,1.6,1.6,0,0,1,.42-.34,2.36,2.36,0,0,1,.62-.24,3.49,3.49,0,0,1,.84-.09,2.86,2.86,0,0,1,1.13.2,2,2,0,0,1,.71.49,1.66,1.66,0,0,1,.38.63,2.08,2.08,0,0,1,.11.61h-1.2a1.76,1.76,0,0,0-.06-.25.59.59,0,0,0-.16-.3,1,1,0,0,0-.36-.24,1.85,1.85,0,0,0-1-.07.93.93,0,0,0-.33.12.88.88,0,0,0-.25.22.59.59,0,0,0-.09.34.58.58,0,0,0,.06.28.4.4,0,0,0,.16.18.54.54,0,0,0,.2.1l.21.06,1.45.36a4.55,4.55,0,0,1,.59.18,1.64,1.64,0,0,1,.5.29,1.34,1.34,0,0,1,.35.46,1.67,1.67,0,0,1,.13.67,2,2,0,0,1-.14.77,1.5,1.5,0,0,1-.36.54,1.75,1.75,0,0,1-.48.34,2.48,2.48,0,0,1-.53.2l-.49.09-.36,0a3.42,3.42,0,0,1-1.31-.21,2.11,2.11,0,0,1-.78-.51,1.48,1.48,0,0,1-.37-.65,2.58,2.58,0,0,1-.09-.63Z" transform="translate(-1.33 -1)"/><path class="cls-2" d="M103.29,86a3.92,3.92,0,0,1,.16-1.2,2.75,2.75,0,0,1,.41-.86,2.32,2.32,0,0,1,.57-.56,3,3,0,0,1,.64-.33,2.4,2.4,0,0,1,.6-.15,3,3,0,0,1,1,0,2.4,2.4,0,0,1,.6.15,3,3,0,0,1,.64.33,2.32,2.32,0,0,1,.57.56,2.75,2.75,0,0,1,.41.86,4.62,4.62,0,0,1,0,2.41,2.86,2.86,0,0,1-.41.86,2.32,2.32,0,0,1-.57.56,3,3,0,0,1-.64.33,2.92,2.92,0,0,1-.6.15,3,3,0,0,1-1,0,2.92,2.92,0,0,1-.6-.15,3,3,0,0,1-.64-.33,2.32,2.32,0,0,1-.57-.56,2.86,2.86,0,0,1-.41-.86A3.94,3.94,0,0,1,103.29,86Zm1.25,0a2.84,2.84,0,0,0,.16,1,1.63,1.63,0,0,0,.4.64,1.36,1.36,0,0,0,.52.32,1.79,1.79,0,0,0,.54.09,1.85,1.85,0,0,0,.54-.09,1.36,1.36,0,0,0,.52-.32,1.63,1.63,0,0,0,.4-.64,2.84,2.84,0,0,0,.16-1,2.79,2.79,0,0,0-.16-1,1.63,1.63,0,0,0-.4-.64,1.36,1.36,0,0,0-.52-.32,1.85,1.85,0,0,0-.54-.09,1.79,1.79,0,0,0-.54.09,1.36,1.36,0,0,0-.52.32,1.63,1.63,0,0,0-.4.64A2.79,2.79,0,0,0,104.54,86Z" transform="translate(-1.33 -1)"/><path class="cls-2" d="M110.63,87.13a1.06,1.06,0,0,0,0,.29.93.93,0,0,0,.18.32,1.05,1.05,0,0,0,.39.25,1.65,1.65,0,0,0,.65.11,2.28,2.28,0,0,0,.45,0,1.68,1.68,0,0,0,.4-.11.85.85,0,0,0,.29-.24.67.67,0,0,0,.11-.39.55.55,0,0,0-.08-.29.59.59,0,0,0-.22-.19,1.42,1.42,0,0,0-.35-.14l-.43-.12-.64-.15c-.24-.05-.48-.11-.71-.18a1.86,1.86,0,0,1-.6-.29,1.29,1.29,0,0,1-.43-.49,1.76,1.76,0,0,1-.16-.79,2.76,2.76,0,0,1,0-.37,2.32,2.32,0,0,1,.13-.4,1.56,1.56,0,0,1,.25-.4,1.6,1.6,0,0,1,.42-.34,2.36,2.36,0,0,1,.62-.24,3.49,3.49,0,0,1,.84-.09A2.86,2.86,0,0,1,113,83a2,2,0,0,1,.71.49,1.66,1.66,0,0,1,.38.63,2.08,2.08,0,0,1,.11.61H113c0-.07,0-.15,0-.25a.7.7,0,0,0-.17-.3,1,1,0,0,0-.36-.24,1.85,1.85,0,0,0-1-.07A.93.93,0,0,0,111,84a.88.88,0,0,0-.25.22.59.59,0,0,0-.09.34.58.58,0,0,0,.06.28.4.4,0,0,0,.16.18.51.51,0,0,0,.21.1l.2.06,1.45.36a5.26,5.26,0,0,1,.6.18,1.72,1.72,0,0,1,.49.29,1.34,1.34,0,0,1,.35.46,1.67,1.67,0,0,1,.13.67,2,2,0,0,1-.14.77,1.5,1.5,0,0,1-.36.54,1.75,1.75,0,0,1-.48.34,2.48,2.48,0,0,1-.53.2l-.49.09-.36,0a3.42,3.42,0,0,1-1.31-.21,2.11,2.11,0,0,1-.78-.51,1.59,1.59,0,0,1-.37-.65,2.58,2.58,0,0,1-.09-.63Z" transform="translate(-1.33 -1)"/><path class="cls-2" d="M117.56,89h-1.25V84.05h-1.8V83h4.85v1h-1.8Z" transform="translate(-1.33 -1)"/><path class="cls-2" d="M124.23,84.05h-3.17v1.26H124v1.06h-2.91v1.54h3.31V89h-4.53V83h4.39Z" transform="translate(-1.33 -1)"/><path class="cls-2" d="M128.78,83h1.16v6H128.7l-2.44-4.26h0V89h-1.16V83h1.31l2.37,4.16h0Z" transform="translate(-1.33 -1)"/><path class="cls-2" d="M132.1,89h-1.24V83h1.24Z" transform="translate(-1.33 -1)"/><path class="cls-2" d="M133.05,83H136a2.37,2.37,0,0,1,.91.15,1.51,1.51,0,0,1,.56.39,1.3,1.3,0,0,1,.29.49,1.86,1.86,0,0,1,.08.5,1.43,1.43,0,0,1-.08.54,1,1,0,0,1-.19.34.71.71,0,0,1-.24.22l-.22.12a1.4,1.4,0,0,1,.45.26,1.21,1.21,0,0,1,.29.35,1.47,1.47,0,0,1,.14.4,2.12,2.12,0,0,1,0,.44,1.75,1.75,0,0,1-.13.68,1.93,1.93,0,0,1-.38.55,1.86,1.86,0,0,1-.27.22,1,1,0,0,1-.35.17,2.16,2.16,0,0,1-.51.11,5.44,5.44,0,0,1-.76,0h-2.53Zm1.2,2.34h1.46a1.23,1.23,0,0,0,.63-.16.54.54,0,0,0,.25-.51.53.53,0,0,0-.24-.51,1.4,1.4,0,0,0-.67-.13h-1.43Zm0,2.6h1.53a1.09,1.09,0,0,0,.71-.21.84.84,0,0,0,.25-.66.68.68,0,0,0-.08-.34.77.77,0,0,0-.21-.23.88.88,0,0,0-.28-.12,1.24,1.24,0,0,0-.33,0h-1.59Z" transform="translate(-1.33 -1)"/><path class="cls-2" d="M140,87.89h3V89h-4.22V83H140Z" transform="translate(-1.33 -1)"/><path class="cls-2" d="M147.9,84.05h-3.17v1.26h2.91v1.06h-2.91v1.54H148V89h-4.53V83h4.39Z" transform="translate(-1.33 -1)"/><path class="cls-2" d="M149.65,87.13a1.1,1.1,0,0,0,0,.29.9.9,0,0,0,.17.32,1.05,1.05,0,0,0,.39.25,1.65,1.65,0,0,0,.65.11,2.28,2.28,0,0,0,.45,0,1.56,1.56,0,0,0,.4-.11.85.85,0,0,0,.29-.24.67.67,0,0,0,.11-.39.47.47,0,0,0-.08-.29.59.59,0,0,0-.22-.19,1.42,1.42,0,0,0-.35-.14l-.43-.12-.64-.15c-.24-.05-.48-.11-.71-.18a2,2,0,0,1-.6-.29,1.26,1.26,0,0,1-.42-.49,1.62,1.62,0,0,1-.17-.79,2.76,2.76,0,0,1,0-.37,2.32,2.32,0,0,1,.13-.4,1.9,1.9,0,0,1,.25-.4,1.6,1.6,0,0,1,.42-.34,2.5,2.5,0,0,1,.62-.24,3.49,3.49,0,0,1,.84-.09A2.86,2.86,0,0,1,152,83a2.17,2.17,0,0,1,.72.49,1.77,1.77,0,0,1,.37.63,2.08,2.08,0,0,1,.11.61H152c0-.07,0-.15-.05-.25a.7.7,0,0,0-.17-.3,1,1,0,0,0-.36-.24,1.6,1.6,0,0,0-.64-.11,1.47,1.47,0,0,0-.36,0,.92.92,0,0,0-.34.12.88.88,0,0,0-.25.22.59.59,0,0,0-.09.34.58.58,0,0,0,.06.28.4.4,0,0,0,.16.18.51.51,0,0,0,.21.1l.2.06,1.46.36a5.76,5.76,0,0,1,.59.18,1.92,1.92,0,0,1,.5.29,1.45,1.45,0,0,1,.34.46,1.51,1.51,0,0,1,.13.67,2,2,0,0,1-.14.77,1.5,1.5,0,0,1-.36.54,1.61,1.61,0,0,1-.48.34,2.48,2.48,0,0,1-.53.2l-.49.09-.35,0a3.44,3.44,0,0,1-1.32-.21,2.11,2.11,0,0,1-.78-.51,1.59,1.59,0,0,1-.37-.65,2.58,2.58,0,0,1-.09-.63Z" transform="translate(-1.33 -1)"/></svg>